<svg width="829" height="94" viewBox="0 0 829 94" fill="none" xmlns="http://www.w3.org/2000/svg">
<path d="M11.22 76.24C11.22 76.9467 11.0533 77.6133 10.72 78.24C10.3867 78.8667 9.85333 79.38 9.12 79.78C8.38667 80.1667 7.44667 80.36 6.3 80.36H3.78V86H1.5V72.1H6.3C7.36667 72.1 8.26667 72.2867 9 72.66C9.74667 73.02 10.3 73.5133 10.66 74.14C11.0333 74.7667 11.22 75.4667 11.22 76.24ZM6.3 78.5C7.16667 78.5 7.81333 78.3067 8.24 77.92C8.66667 77.52 8.88 76.96 8.88 76.24C8.88 74.72 8.02 73.96 6.3 73.96H3.78V78.5H6.3ZM15.6745 76.58C16.0079 76.02 16.4479 75.5867 16.9945 75.28C17.5545 74.96 18.2145 74.8 18.9745 74.8V77.16H18.3945C17.5012 77.16 16.8212 77.3867 16.3545 77.84C15.9012 78.2933 15.6745 79.08 15.6745 80.2V86H13.3945V74.98H15.6745V76.58ZM25.8503 86.18C24.8103 86.18 23.8703 85.9467 23.0303 85.48C22.1903 85 21.5303 84.3333 21.0503 83.48C20.5703 82.6133 20.3303 81.6133 20.3303 80.48C20.3303 79.36 20.577 78.3667 21.0703 77.5C21.5636 76.6333 22.237 75.9667 23.0903 75.5C23.9436 75.0333 24.897 74.8 25.9503 74.8C27.0036 74.8 27.957 75.0333 28.8103 75.5C29.6636 75.9667 30.337 76.6333 30.8303 77.5C31.3236 78.3667 31.5703 79.36 31.5703 80.48C31.5703 81.6 31.317 82.5933 30.8103 83.46C30.3036 84.3267 29.6103 85 28.7303 85.48C27.8636 85.9467 26.9036 86.18 25.8503 86.18ZM25.8503 84.2C26.437 84.2 26.9836 84.06 27.4903 83.78C28.0103 83.5 28.4303 83.08 28.7503 82.52C29.0703 81.96 29.2303 81.28 29.2303 80.48C29.2303 79.68 29.077 79.0067 28.7703 78.46C28.4636 77.9 28.057 77.48 27.5503 77.2C27.0436 76.92 26.497 76.78 25.9103 76.78C25.3236 76.78 24.777 76.92 24.2703 77.2C23.777 77.48 23.3836 77.9 23.0903 78.46C22.797 79.0067 22.6503 79.68 22.6503 80.48C22.6503 81.6667 22.9503 82.5867 23.5503 83.24C24.1636 83.88 24.9303 84.2 25.8503 84.2ZM33.0642 80.44C33.0642 79.3333 33.2909 78.3533 33.7442 77.5C34.2109 76.6467 34.8376 75.9867 35.6242 75.52C36.4242 75.04 37.3109 74.8 38.2842 74.8C39.0042 74.8 39.7109 74.96 40.4042 75.28C41.1109 75.5867 41.6709 76 42.0842 76.52V71.2H44.3842V86H42.0842V84.34C41.7109 84.8733 41.1909 85.3133 40.5242 85.66C39.8709 86.0067 39.1176 86.18 38.2642 86.18C37.3042 86.18 36.4242 85.94 35.6242 85.46C34.8376 84.9667 34.2109 84.2867 33.7442 83.42C33.2909 82.54 33.0642 81.5467 33.0642 80.44ZM42.0842 80.48C42.0842 79.72 41.9242 79.06 41.6042 78.5C41.2976 77.94 40.8909 77.5133 40.3842 77.22C39.8776 76.9267 39.3309 76.78 38.7442 76.78C38.1576 76.78 37.6109 76.9267 37.1042 77.22C36.5976 77.5 36.1842 77.92 35.8642 78.48C35.5576 79.0267 35.4042 79.68 35.4042 80.44C35.4042 81.2 35.5576 81.8667 35.8642 82.44C36.1842 83.0133 36.5976 83.4533 37.1042 83.76C37.6242 84.0533 38.1709 84.2 38.7442 84.2C39.3309 84.2 39.8776 84.0533 40.3842 83.76C40.8909 83.4667 41.2976 83.04 41.6042 82.48C41.9242 81.9067 42.0842 81.24 42.0842 80.48ZM57.3589 74.98V86H55.0789V84.7C54.7189 85.1533 54.2456 85.5133 53.6589 85.78C53.0856 86.0333 52.4722 86.16 51.8189 86.16C50.9522 86.16 50.1722 85.98 49.4789 85.62C48.7989 85.26 48.2589 84.7267 47.8589 84.02C47.4722 83.3133 47.2789 82.46 47.2789 81.46V74.98H49.5389V81.12C49.5389 82.1067 49.7856 82.8667 50.2789 83.4C50.7722 83.92 51.4456 84.18 52.2989 84.18C53.1522 84.18 53.8256 83.92 54.3189 83.4C54.8256 82.8667 55.0789 82.1067 55.0789 81.12V74.98H57.3589ZM59.6072 80.48C59.6072 79.3467 59.8339 78.3533 60.2872 77.5C60.7539 76.6333 61.3939 75.9667 62.2072 75.5C63.0205 75.0333 63.9539 74.8 65.0072 74.8C66.3405 74.8 67.4405 75.12 68.3072 75.76C69.1872 76.3867 69.7805 77.2867 70.0872 78.46H67.6272C67.4272 77.9133 67.1072 77.4867 66.6672 77.18C66.2272 76.8733 65.6739 76.72 65.0072 76.72C64.0739 76.72 63.3272 77.0533 62.7672 77.72C62.2205 78.3733 61.9472 79.2933 61.9472 80.48C61.9472 81.6667 62.2205 82.5933 62.7672 83.26C63.3272 83.9267 64.0739 84.26 65.0072 84.26C66.3272 84.26 67.2005 83.68 67.6272 82.52H70.0872C69.7672 83.64 69.1672 84.5333 68.2872 85.2C67.4072 85.8533 66.3139 86.18 65.0072 86.18C63.9539 86.18 63.0205 85.9467 62.2072 85.48C61.3939 85 60.7539 84.3333 60.2872 83.48C59.8339 82.6133 59.6072 81.6133 59.6072 80.48ZM75.0194 76.84V82.94C75.0194 83.3533 75.1127 83.6533 75.2994 83.84C75.4994 84.0133 75.8327 84.1 76.2994 84.1H77.6994V86H75.8994C74.8727 86 74.086 85.76 73.5394 85.28C72.9927 84.8 72.7194 84.02 72.7194 82.94V76.84H71.4194V74.98H72.7194V72.24H75.0194V74.98H77.6994V76.84H75.0194Z" fill="#8896AB"/>
<path d="M136.68 72.1V73.96H130.78V78.06H135.38V79.92H130.78V86H128.5V72.1H136.68ZM148.893 80.22C148.893 80.6333 148.866 81.0067 148.813 81.34H140.393C140.46 82.22 140.786 82.9267 141.373 83.46C141.96 83.9933 142.68 84.26 143.533 84.26C144.76 84.26 145.626 83.7467 146.133 82.72H148.593C148.26 83.7333 147.653 84.5667 146.773 85.22C145.906 85.86 144.826 86.18 143.533 86.18C142.48 86.18 141.533 85.9467 140.693 85.48C139.866 85 139.213 84.3333 138.733 83.48C138.266 82.6133 138.033 81.6133 138.033 80.48C138.033 79.3467 138.26 78.3533 138.713 77.5C139.18 76.6333 139.826 75.9667 140.653 75.5C141.493 75.0333 142.453 74.8 143.533 74.8C144.573 74.8 145.5 75.0267 146.313 75.48C147.126 75.9333 147.76 76.5733 148.213 77.4C148.666 78.2133 148.893 79.1533 148.893 80.22ZM146.513 79.5C146.5 78.66 146.2 77.9867 145.613 77.48C145.026 76.9733 144.3 76.72 143.433 76.72C142.646 76.72 141.973 76.9733 141.413 77.48C140.853 77.9733 140.52 78.6467 140.413 79.5H146.513ZM150.377 80.44C150.377 79.3333 150.603 78.3533 151.057 77.5C151.523 76.6467 152.15 75.9867 152.937 75.52C153.737 75.04 154.617 74.8 155.577 74.8C156.443 74.8 157.197 74.9733 157.837 75.32C158.49 75.6533 159.01 76.0733 159.397 76.58V74.98H161.697V86H159.397V84.36C159.01 84.88 158.483 85.3133 157.817 85.66C157.15 86.0067 156.39 86.18 155.537 86.18C154.59 86.18 153.723 85.94 152.937 85.46C152.15 84.9667 151.523 84.2867 151.057 83.42C150.603 82.54 150.377 81.5467 150.377 80.44ZM159.397 80.48C159.397 79.72 159.237 79.06 158.917 78.5C158.61 77.94 158.203 77.5133 157.697 77.22C157.19 76.9267 156.643 76.78 156.057 76.78C155.47 76.78 154.923 76.9267 154.417 77.22C153.91 77.5 153.497 77.92 153.177 78.48C152.87 79.0267 152.717 79.68 152.717 80.44C152.717 81.2 152.87 81.8667 153.177 82.44C153.497 83.0133 153.91 83.4533 154.417 83.76C154.937 84.0533 155.483 84.2 156.057 84.2C156.643 84.2 157.19 84.0533 157.697 83.76C158.203 83.4667 158.61 83.04 158.917 82.48C159.237 81.9067 159.397 81.24 159.397 80.48ZM167.351 76.84V82.94C167.351 83.3533 167.445 83.6533 167.631 83.84C167.831 84.0133 168.165 84.1 168.631 84.1H170.031V86H168.231C167.205 86 166.418 85.76 165.871 85.28C165.325 84.8 165.051 84.02 165.051 82.94V76.84H163.751V74.98H165.051V72.24H167.351V74.98H170.031V76.84H167.351ZM182.113 74.98V86H179.833V84.7C179.473 85.1533 178.999 85.5133 178.413 85.78C177.839 86.0333 177.226 86.16 176.573 86.16C175.706 86.16 174.926 85.98 174.233 85.62C173.553 85.26 173.013 84.7267 172.613 84.02C172.226 83.3133 172.033 82.46 172.033 81.46V74.98H174.293V81.12C174.293 82.1067 174.539 82.8667 175.033 83.4C175.526 83.92 176.199 84.18 177.053 84.18C177.906 84.18 178.579 83.92 179.073 83.4C179.579 82.8667 179.833 82.1067 179.833 81.12V74.98H182.113ZM187.401 76.58C187.734 76.02 188.174 75.5867 188.721 75.28C189.281 74.96 189.941 74.8 190.701 74.8V77.16H190.121C189.228 77.16 188.548 77.3867 188.081 77.84C187.628 78.2933 187.401 79.08 187.401 80.2V86H185.121V74.98H187.401V76.58ZM202.897 80.22C202.897 80.6333 202.87 81.0067 202.817 81.34H194.397C194.464 82.22 194.79 82.9267 195.377 83.46C195.964 83.9933 196.684 84.26 197.537 84.26C198.764 84.26 199.63 83.7467 200.137 82.72H202.597C202.264 83.7333 201.657 84.5667 200.777 85.22C199.91 85.86 198.83 86.18 197.537 86.18C196.484 86.18 195.537 85.9467 194.697 85.48C193.87 85 193.217 84.3333 192.737 83.48C192.27 82.6133 192.037 81.6133 192.037 80.48C192.037 79.3467 192.264 78.3533 192.717 77.5C193.184 76.6333 193.83 75.9667 194.657 75.5C195.497 75.0333 196.457 74.8 197.537 74.8C198.577 74.8 199.504 75.0267 200.317 75.48C201.13 75.9333 201.764 76.5733 202.217 77.4C202.67 78.2133 202.897 79.1533 202.897 80.22ZM200.517 79.5C200.504 78.66 200.204 77.9867 199.617 77.48C199.03 76.9733 198.304 76.72 197.437 76.72C196.65 76.72 195.977 76.9733 195.417 77.48C194.857 77.9733 194.524 78.6467 194.417 79.5H200.517ZM209.141 86.18C208.274 86.18 207.494 86.0267 206.801 85.72C206.121 85.4 205.581 84.9733 205.181 84.44C204.781 83.8933 204.567 83.2867 204.541 82.62H206.901C206.941 83.0867 207.161 83.48 207.561 83.8C207.974 84.1067 208.487 84.26 209.101 84.26C209.741 84.26 210.234 84.14 210.581 83.9C210.941 83.6467 211.121 83.3267 211.121 82.94C211.121 82.5267 210.921 82.22 210.521 82.02C210.134 81.82 209.514 81.6 208.661 81.36C207.834 81.1333 207.161 80.9133 206.641 80.7C206.121 80.4867 205.667 80.16 205.281 79.72C204.907 79.28 204.721 78.7 204.721 77.98C204.721 77.3933 204.894 76.86 205.241 76.38C205.587 75.8867 206.081 75.5 206.721 75.22C207.374 74.94 208.121 74.8 208.961 74.8C210.214 74.8 211.221 75.12 211.981 75.76C212.754 76.3867 213.167 77.2467 213.221 78.34H210.941C210.901 77.8467 210.701 77.4533 210.341 77.16C209.981 76.8667 209.494 76.72 208.881 76.72C208.281 76.72 207.821 76.8333 207.501 77.06C207.181 77.2867 207.021 77.5867 207.021 77.96C207.021 78.2533 207.127 78.5 207.341 78.7C207.554 78.9 207.814 79.06 208.121 79.18C208.427 79.2867 208.881 79.4267 209.481 79.6C210.281 79.8133 210.934 80.0333 211.441 80.26C211.961 80.4733 212.407 80.7933 212.781 81.22C213.154 81.6467 213.347 82.2133 213.361 82.92C213.361 83.5467 213.187 84.1067 212.841 84.6C212.494 85.0933 212.001 85.48 211.361 85.76C210.734 86.04 209.994 86.18 209.141 86.18Z" fill="#8896AB"/>
<path d="M274.22 76.24C274.22 76.9467 274.053 77.6133 273.72 78.24C273.387 78.8667 272.853 79.38 272.12 79.78C271.387 80.1667 270.447 80.36 269.3 80.36H266.78V86H264.5V72.1H269.3C270.367 72.1 271.267 72.2867 272 72.66C272.747 73.02 273.3 73.5133 273.66 74.14C274.033 74.7667 274.22 75.4667 274.22 76.24ZM269.3 78.5C270.167 78.5 270.813 78.3067 271.24 77.92C271.667 77.52 271.88 76.96 271.88 76.24C271.88 74.72 271.02 73.96 269.3 73.96H266.78V78.5H269.3ZM278.675 76.58C279.008 76.02 279.448 75.5867 279.995 75.28C280.555 74.96 281.215 74.8 281.975 74.8V77.16H281.395C280.501 77.16 279.821 77.3867 279.355 77.84C278.901 78.2933 278.675 79.08 278.675 80.2V86H276.395V74.98H278.675V76.58ZM285.23 73.52C284.817 73.52 284.47 73.38 284.19 73.1C283.91 72.82 283.77 72.4733 283.77 72.06C283.77 71.6467 283.91 71.3 284.19 71.02C284.47 70.74 284.817 70.6 285.23 70.6C285.63 70.6 285.97 70.74 286.25 71.02C286.53 71.3 286.67 71.6467 286.67 72.06C286.67 72.4733 286.53 72.82 286.25 73.1C285.97 73.38 285.63 73.52 285.23 73.52ZM286.35 74.98V86H284.07V74.98H286.35ZM288.584 80.48C288.584 79.3467 288.81 78.3533 289.264 77.5C289.73 76.6333 290.37 75.9667 291.184 75.5C291.997 75.0333 292.93 74.8 293.984 74.8C295.317 74.8 296.417 75.12 297.284 75.76C298.164 76.3867 298.757 77.2867 299.064 78.46H296.604C296.404 77.9133 296.084 77.4867 295.644 77.18C295.204 76.8733 294.65 76.72 293.984 76.72C293.05 76.72 292.304 77.0533 291.744 77.72C291.197 78.3733 290.924 79.2933 290.924 80.48C290.924 81.6667 291.197 82.5933 291.744 83.26C292.304 83.9267 293.05 84.26 293.984 84.26C295.304 84.26 296.177 83.68 296.604 82.52H299.064C298.744 83.64 298.144 84.5333 297.264 85.2C296.384 85.8533 295.29 86.18 293.984 86.18C292.93 86.18 291.997 85.9467 291.184 85.48C290.37 85 289.73 84.3333 289.264 83.48C288.81 82.6133 288.584 81.6133 288.584 80.48ZM302.496 73.52C302.083 73.52 301.736 73.38 301.456 73.1C301.176 72.82 301.036 72.4733 301.036 72.06C301.036 71.6467 301.176 71.3 301.456 71.02C301.736 70.74 302.083 70.6 302.496 70.6C302.896 70.6 303.236 70.74 303.516 71.02C303.796 71.3 303.936 71.6467 303.936 72.06C303.936 72.4733 303.796 72.82 303.516 73.1C303.236 73.38 302.896 73.52 302.496 73.52ZM303.616 74.98V86H301.336V74.98H303.616ZM312.169 74.8C313.036 74.8 313.809 74.98 314.489 75.34C315.183 75.7 315.723 76.2333 316.109 76.94C316.496 77.6467 316.689 78.5 316.689 79.5V86H314.429V79.84C314.429 78.8533 314.183 78.1 313.689 77.58C313.196 77.0467 312.523 76.78 311.669 76.78C310.816 76.78 310.136 77.0467 309.629 77.58C309.136 78.1 308.889 78.8533 308.889 79.84V86H306.609V74.98H308.889V76.24C309.263 75.7867 309.736 75.4333 310.309 75.18C310.896 74.9267 311.516 74.8 312.169 74.8ZM324.038 74.8C324.891 74.8 325.644 74.9733 326.298 75.32C326.964 75.6533 327.484 76.0733 327.858 76.58V74.98H330.158V86.18C330.158 87.1933 329.944 88.0933 329.518 88.88C329.091 89.68 328.471 90.3067 327.658 90.76C326.858 91.2133 325.898 91.44 324.778 91.44C323.284 91.44 322.044 91.0867 321.058 90.38C320.071 89.6867 319.511 88.74 319.378 87.54H321.638C321.811 88.1133 322.178 88.5733 322.738 88.92C323.311 89.28 323.991 89.46 324.778 89.46C325.698 89.46 326.438 89.18 326.998 88.62C327.571 88.06 327.858 87.2467 327.858 86.18V84.34C327.471 84.86 326.944 85.3 326.278 85.66C325.624 86.0067 324.878 86.18 324.038 86.18C323.078 86.18 322.198 85.94 321.398 85.46C320.611 84.9667 319.984 84.2867 319.518 83.42C319.064 82.54 318.838 81.5467 318.838 80.44C318.838 79.3333 319.064 78.3533 319.518 77.5C319.984 76.6467 320.611 75.9867 321.398 75.52C322.198 75.04 323.078 74.8 324.038 74.8ZM327.858 80.48C327.858 79.72 327.698 79.06 327.378 78.5C327.071 77.94 326.664 77.5133 326.158 77.22C325.651 76.9267 325.104 76.78 324.518 76.78C323.931 76.78 323.384 76.9267 322.878 77.22C322.371 77.5 321.958 77.92 321.638 78.48C321.331 79.0267 321.178 79.68 321.178 80.44C321.178 81.2 321.331 81.8667 321.638 82.44C321.958 83.0133 322.371 83.4533 322.878 83.76C323.398 84.0533 323.944 84.2 324.518 84.2C325.104 84.2 325.651 84.0533 326.158 83.76C326.664 83.4667 327.071 83.04 327.378 82.48C327.698 81.9067 327.858 81.24 327.858 80.48Z" fill="#8896AB"/>
<path d="M388.72 86L385.52 80.44H383.78V86H381.5V72.1H386.3C387.367 72.1 388.267 72.2867 389 72.66C389.747 73.0333 390.3 73.5333 390.66 74.16C391.033 74.7867 391.22 75.4867 391.22 76.26C391.22 77.1667 390.953 77.9933 390.42 78.74C389.9 79.4733 389.093 79.9733 388 80.24L391.44 86H388.72ZM383.78 78.62H386.3C387.153 78.62 387.793 78.4067 388.22 77.98C388.66 77.5533 388.88 76.98 388.88 76.26C388.88 75.54 388.667 74.98 388.24 74.58C387.813 74.1667 387.167 73.96 386.3 73.96H383.78V78.62ZM404.237 80.22C404.237 80.6333 404.21 81.0067 404.157 81.34H395.737C395.803 82.22 396.13 82.9267 396.717 83.46C397.303 83.9933 398.023 84.26 398.877 84.26C400.103 84.26 400.97 83.7467 401.477 82.72H403.937C403.603 83.7333 402.997 84.5667 402.117 85.22C401.25 85.86 400.17 86.18 398.877 86.18C397.823 86.18 396.877 85.9467 396.037 85.48C395.21 85 394.557 84.3333 394.077 83.48C393.61 82.6133 393.377 81.6133 393.377 80.48C393.377 79.3467 393.603 78.3533 394.057 77.5C394.523 76.6333 395.17 75.9667 395.997 75.5C396.837 75.0333 397.797 74.8 398.877 74.8C399.917 74.8 400.843 75.0267 401.657 75.48C402.47 75.9333 403.103 76.5733 403.557 77.4C404.01 78.2133 404.237 79.1533 404.237 80.22ZM401.857 79.5C401.843 78.66 401.543 77.9867 400.957 77.48C400.37 76.9733 399.643 76.72 398.777 76.72C397.99 76.72 397.317 76.9733 396.757 77.48C396.197 77.9733 395.863 78.6467 395.757 79.5H401.857ZM410.48 86.18C409.614 86.18 408.834 86.0267 408.14 85.72C407.46 85.4 406.92 84.9733 406.52 84.44C406.12 83.8933 405.907 83.2867 405.88 82.62H408.24C408.28 83.0867 408.5 83.48 408.9 83.8C409.314 84.1067 409.827 84.26 410.44 84.26C411.08 84.26 411.574 84.14 411.92 83.9C412.28 83.6467 412.46 83.3267 412.46 82.94C412.46 82.5267 412.26 82.22 411.86 82.02C411.474 81.82 410.854 81.6 410 81.36C409.174 81.1333 408.5 80.9133 407.98 80.7C407.46 80.4867 407.007 80.16 406.62 79.72C406.247 79.28 406.06 78.7 406.06 77.98C406.06 77.3933 406.234 76.86 406.58 76.38C406.927 75.8867 407.42 75.5 408.06 75.22C408.714 74.94 409.46 74.8 410.3 74.8C411.554 74.8 412.56 75.12 413.32 75.76C414.094 76.3867 414.507 77.2467 414.56 78.34H412.28C412.24 77.8467 412.04 77.4533 411.68 77.16C411.32 76.8667 410.834 76.72 410.22 76.72C409.62 76.72 409.16 76.8333 408.84 77.06C408.52 77.2867 408.36 77.5867 408.36 77.96C408.36 78.2533 408.467 78.5 408.68 78.7C408.894 78.9 409.154 79.06 409.46 79.18C409.767 79.2867 410.22 79.4267 410.82 79.6C411.62 79.8133 412.274 80.0333 412.78 80.26C413.3 80.4733 413.747 80.7933 414.12 81.22C414.494 81.6467 414.687 82.2133 414.7 82.92C414.7 83.5467 414.527 84.1067 414.18 84.6C413.834 85.0933 413.34 85.48 412.7 85.76C412.074 86.04 411.334 86.18 410.48 86.18ZM421.944 86.18C420.904 86.18 419.964 85.9467 419.124 85.48C418.284 85 417.624 84.3333 417.144 83.48C416.664 82.6133 416.424 81.6133 416.424 80.48C416.424 79.36 416.671 78.3667 417.164 77.5C417.657 76.6333 418.331 75.9667 419.184 75.5C420.037 75.0333 420.991 74.8 422.044 74.8C423.097 74.8 424.051 75.0333 424.904 75.5C425.757 75.9667 426.431 76.6333 426.924 77.5C427.417 78.3667 427.664 79.36 427.664 80.48C427.664 81.6 427.411 82.5933 426.904 83.46C426.397 84.3267 425.704 85 424.824 85.48C423.957 85.9467 422.997 86.18 421.944 86.18ZM421.944 84.2C422.531 84.2 423.077 84.06 423.584 83.78C424.104 83.5 424.524 83.08 424.844 82.52C425.164 81.96 425.324 81.28 425.324 80.48C425.324 79.68 425.171 79.0067 424.864 78.46C424.557 77.9 424.151 77.48 423.644 77.2C423.137 76.92 422.591 76.78 422.004 76.78C421.417 76.78 420.871 76.92 420.364 77.2C419.871 77.48 419.477 77.9 419.184 78.46C418.891 79.0067 418.744 79.68 418.744 80.48C418.744 81.6667 419.044 82.5867 419.644 83.24C420.257 83.88 421.024 84.2 421.944 84.2ZM439.898 74.98V86H437.618V84.7C437.258 85.1533 436.785 85.5133 436.198 85.78C435.625 86.0333 435.011 86.16 434.358 86.16C433.491 86.16 432.711 85.98 432.018 85.62C431.338 85.26 430.798 84.7267 430.398 84.02C430.011 83.3133 429.818 82.46 429.818 81.46V74.98H432.078V81.12C432.078 82.1067 432.325 82.8667 432.818 83.4C433.311 83.92 433.985 84.18 434.838 84.18C435.691 84.18 436.365 83.92 436.858 83.4C437.365 82.8667 437.618 82.1067 437.618 81.12V74.98H439.898ZM445.186 76.58C445.52 76.02 445.96 75.5867 446.506 75.28C447.066 74.96 447.726 74.8 448.486 74.8V77.16H447.906C447.013 77.16 446.333 77.3867 445.866 77.84C445.413 78.2933 445.186 79.08 445.186 80.2V86H442.906V74.98H445.186V76.58ZM449.822 80.48C449.822 79.3467 450.049 78.3533 450.502 77.5C450.969 76.6333 451.609 75.9667 452.422 75.5C453.235 75.0333 454.169 74.8 455.222 74.8C456.555 74.8 457.655 75.12 458.522 75.76C459.402 76.3867 459.995 77.2867 460.302 78.46H457.842C457.642 77.9133 457.322 77.4867 456.882 77.18C456.442 76.8733 455.889 76.72 455.222 76.72C454.289 76.72 453.542 77.0533 452.982 77.72C452.435 78.3733 452.162 79.2933 452.162 80.48C452.162 81.6667 452.435 82.5933 452.982 83.26C453.542 83.9267 454.289 84.26 455.222 84.26C456.542 84.26 457.415 83.68 457.842 82.52H460.302C459.982 83.64 459.382 84.5333 458.502 85.2C457.622 85.8533 456.529 86.18 455.222 86.18C454.169 86.18 453.235 85.9467 452.422 85.48C451.609 85 450.969 84.3333 450.502 83.48C450.049 82.6133 449.822 81.6133 449.822 80.48ZM472.674 80.22C472.674 80.6333 472.648 81.0067 472.594 81.34H464.174C464.241 82.22 464.568 82.9267 465.154 83.46C465.741 83.9933 466.461 84.26 467.314 84.26C468.541 84.26 469.408 83.7467 469.914 82.72H472.374C472.041 83.7333 471.434 84.5667 470.554 85.22C469.688 85.86 468.608 86.18 467.314 86.18C466.261 86.18 465.314 85.9467 464.474 85.48C463.648 85 462.994 84.3333 462.514 83.48C462.048 82.6133 461.814 81.6133 461.814 80.48C461.814 79.3467 462.041 78.3533 462.494 77.5C462.961 76.6333 463.608 75.9667 464.434 75.5C465.274 75.0333 466.234 74.8 467.314 74.8C468.354 74.8 469.281 75.0267 470.094 75.48C470.908 75.9333 471.541 76.5733 471.994 77.4C472.448 78.2133 472.674 79.1533 472.674 80.22ZM470.294 79.5C470.281 78.66 469.981 77.9867 469.394 77.48C468.808 76.9733 468.081 76.72 467.214 76.72C466.428 76.72 465.754 76.9733 465.194 77.48C464.634 77.9733 464.301 78.6467 464.194 79.5H470.294ZM478.918 86.18C478.051 86.18 477.271 86.0267 476.578 85.72C475.898 85.4 475.358 84.9733 474.958 84.44C474.558 83.8933 474.345 83.2867 474.318 82.62H476.678C476.718 83.0867 476.938 83.48 477.338 83.8C477.751 84.1067 478.265 84.26 478.878 84.26C479.518 84.26 480.011 84.14 480.358 83.9C480.718 83.6467 480.898 83.3267 480.898 82.94C480.898 82.5267 480.698 82.22 480.298 82.02C479.911 81.82 479.291 81.6 478.438 81.36C477.611 81.1333 476.938 80.9133 476.418 80.7C475.898 80.4867 475.445 80.16 475.058 79.72C474.685 79.28 474.498 78.7 474.498 77.98C474.498 77.3933 474.671 76.86 475.018 76.38C475.365 75.8867 475.858 75.5 476.498 75.22C477.151 74.94 477.898 74.8 478.738 74.8C479.991 74.8 480.998 75.12 481.758 75.76C482.531 76.3867 482.945 77.2467 482.998 78.34H480.718C480.678 77.8467 480.478 77.4533 480.118 77.16C479.758 76.8667 479.271 76.72 478.658 76.72C478.058 76.72 477.598 76.8333 477.278 77.06C476.958 77.2867 476.798 77.5867 476.798 77.96C476.798 78.2533 476.905 78.5 477.118 78.7C477.331 78.9 477.591 79.06 477.898 79.18C478.205 79.2867 478.658 79.4267 479.258 79.6C480.058 79.8133 480.711 80.0333 481.218 80.26C481.738 80.4733 482.185 80.7933 482.558 81.22C482.931 81.6467 483.125 82.2133 483.138 82.92C483.138 83.5467 482.965 84.1067 482.618 84.6C482.271 85.0933 481.778 85.48 481.138 85.76C480.511 86.04 479.771 86.18 478.918 86.18Z" fill="#8896AB"/>
<path d="M533.74 79.02C533.74 77.66 534.053 76.44 534.68 75.36C535.32 74.28 536.18 73.44 537.26 72.84C538.353 72.2267 539.547 71.92 540.84 71.92C542.32 71.92 543.633 72.2867 544.78 73.02C545.94 73.74 546.78 74.7667 547.3 76.1H544.56C544.2 75.3667 543.7 74.82 543.06 74.46C542.42 74.1 541.68 73.92 540.84 73.92C539.92 73.92 539.1 74.1267 538.38 74.54C537.66 74.9533 537.093 75.5467 536.68 76.32C536.28 77.0933 536.08 77.9933 536.08 79.02C536.08 80.0467 536.28 80.9467 536.68 81.72C537.093 82.4933 537.66 83.0933 538.38 83.52C539.1 83.9333 539.92 84.14 540.84 84.14C541.68 84.14 542.42 83.96 543.06 83.6C543.7 83.24 544.2 82.6933 544.56 81.96H547.3C546.78 83.2933 545.94 84.32 544.78 85.04C543.633 85.76 542.32 86.12 540.84 86.12C539.533 86.12 538.34 85.82 537.26 85.22C536.18 84.6067 535.32 83.76 534.68 82.68C534.053 81.6 533.74 80.38 533.74 79.02ZM549.209 80.44C549.209 79.3333 549.435 78.3533 549.889 77.5C550.355 76.6467 550.982 75.9867 551.769 75.52C552.569 75.04 553.449 74.8 554.409 74.8C555.275 74.8 556.029 74.9733 556.669 75.32C557.322 75.6533 557.842 76.0733 558.229 76.58V74.98H560.529V86H558.229V84.36C557.842 84.88 557.315 85.3133 556.649 85.66C555.982 86.0067 555.222 86.18 554.369 86.18C553.422 86.18 552.555 85.94 551.769 85.46C550.982 84.9667 550.355 84.2867 549.889 83.42C549.435 82.54 549.209 81.5467 549.209 80.44ZM558.229 80.48C558.229 79.72 558.069 79.06 557.749 78.5C557.442 77.94 557.035 77.5133 556.529 77.22C556.022 76.9267 555.475 76.78 554.889 76.78C554.302 76.78 553.755 76.9267 553.249 77.22C552.742 77.5 552.329 77.92 552.009 78.48C551.702 79.0267 551.549 79.68 551.549 80.44C551.549 81.2 551.702 81.8667 552.009 82.44C552.329 83.0133 552.742 83.4533 553.249 83.76C553.769 84.0533 554.315 84.2 554.889 84.2C555.475 84.2 556.022 84.0533 556.529 83.76C557.035 83.4667 557.442 83.04 557.749 82.48C558.069 81.9067 558.229 81.24 558.229 80.48ZM565.803 76.58C566.137 76.02 566.577 75.5867 567.123 75.28C567.683 74.96 568.343 74.8 569.103 74.8V77.16H568.523C567.63 77.16 566.95 77.3867 566.483 77.84C566.03 78.2933 565.803 79.08 565.803 80.2V86H563.523V74.98H565.803V76.58ZM581.299 80.22C581.299 80.6333 581.273 81.0067 581.219 81.34H572.799C572.866 82.22 573.193 82.9267 573.779 83.46C574.366 83.9933 575.086 84.26 575.939 84.26C577.166 84.26 578.033 83.7467 578.539 82.72H580.999C580.666 83.7333 580.059 84.5667 579.179 85.22C578.313 85.86 577.233 86.18 575.939 86.18C574.886 86.18 573.939 85.9467 573.099 85.48C572.273 85 571.619 84.3333 571.139 83.48C570.673 82.6133 570.439 81.6133 570.439 80.48C570.439 79.3467 570.666 78.3533 571.119 77.5C571.586 76.6333 572.233 75.9667 573.059 75.5C573.899 75.0333 574.859 74.8 575.939 74.8C576.979 74.8 577.906 75.0267 578.719 75.48C579.533 75.9333 580.166 76.5733 580.619 77.4C581.073 78.2133 581.299 79.1533 581.299 80.22ZM578.919 79.5C578.906 78.66 578.606 77.9867 578.019 77.48C577.433 76.9733 576.706 76.72 575.839 76.72C575.053 76.72 574.379 76.9733 573.819 77.48C573.259 77.9733 572.926 78.6467 572.819 79.5H578.919ZM593.643 80.22C593.643 80.6333 593.616 81.0067 593.563 81.34H585.143C585.21 82.22 585.536 82.9267 586.123 83.46C586.71 83.9933 587.43 84.26 588.283 84.26C589.51 84.26 590.376 83.7467 590.883 82.72H593.343C593.01 83.7333 592.403 84.5667 591.523 85.22C590.656 85.86 589.576 86.18 588.283 86.18C587.23 86.18 586.283 85.9467 585.443 85.48C584.616 85 583.963 84.3333 583.483 83.48C583.016 82.6133 582.783 81.6133 582.783 80.48C582.783 79.3467 583.01 78.3533 583.463 77.5C583.93 76.6333 584.576 75.9667 585.403 75.5C586.243 75.0333 587.203 74.8 588.283 74.8C589.323 74.8 590.25 75.0267 591.063 75.48C591.876 75.9333 592.51 76.5733 592.963 77.4C593.416 78.2133 593.643 79.1533 593.643 80.22ZM591.263 79.5C591.25 78.66 590.95 77.9867 590.363 77.48C589.776 76.9733 589.05 76.72 588.183 76.72C587.396 76.72 586.723 76.9733 586.163 77.48C585.603 77.9733 585.27 78.6467 585.163 79.5H591.263ZM598.167 76.58C598.5 76.02 598.94 75.5867 599.487 75.28C600.047 74.96 600.707 74.8 601.467 74.8V77.16H600.887C599.993 77.16 599.313 77.3867 598.847 77.84C598.393 78.2933 598.167 79.08 598.167 80.2V86H595.887V74.98H598.167V76.58ZM607.563 86.18C606.696 86.18 605.916 86.0267 605.223 85.72C604.543 85.4 604.003 84.9733 603.603 84.44C603.203 83.8933 602.989 83.2867 602.963 82.62H605.323C605.363 83.0867 605.583 83.48 605.983 83.8C606.396 84.1067 606.909 84.26 607.523 84.26C608.163 84.26 608.656 84.14 609.003 83.9C609.363 83.6467 609.543 83.3267 609.543 82.94C609.543 82.5267 609.343 82.22 608.943 82.02C608.556 81.82 607.936 81.6 607.083 81.36C606.256 81.1333 605.583 80.9133 605.063 80.7C604.543 80.4867 604.089 80.16 603.703 79.72C603.329 79.28 603.143 78.7 603.143 77.98C603.143 77.3933 603.316 76.86 603.663 76.38C604.009 75.8867 604.503 75.5 605.143 75.22C605.796 74.94 606.543 74.8 607.383 74.8C608.636 74.8 609.643 75.12 610.403 75.76C611.176 76.3867 611.589 77.2467 611.643 78.34H609.363C609.323 77.8467 609.123 77.4533 608.763 77.16C608.403 76.8667 607.916 76.72 607.303 76.72C606.703 76.72 606.243 76.8333 605.923 77.06C605.603 77.2867 605.443 77.5867 605.443 77.96C605.443 78.2533 605.549 78.5 605.763 78.7C605.976 78.9 606.236 79.06 606.543 79.18C606.849 79.2867 607.303 79.4267 607.903 79.6C608.703 79.8133 609.356 80.0333 609.863 80.26C610.383 80.4733 610.829 80.7933 611.203 81.22C611.576 81.6467 611.769 82.2133 611.783 82.92C611.783 83.5467 611.609 84.1067 611.263 84.6C610.916 85.0933 610.423 85.48 609.783 85.76C609.156 86.04 608.416 86.18 607.563 86.18Z" fill="#8896AB"/>
<path d="M673.6 72.1V86H671.32V79.92H664.78V86H662.5V72.1H664.78V78.06H671.32V72.1H673.6ZM686.702 80.22C686.702 80.6333 686.675 81.0067 686.622 81.34H678.202C678.268 82.22 678.595 82.9267 679.182 83.46C679.768 83.9933 680.488 84.26 681.342 84.26C682.568 84.26 683.435 83.7467 683.942 82.72H686.402C686.068 83.7333 685.462 84.5667 684.582 85.22C683.715 85.86 682.635 86.18 681.342 86.18C680.288 86.18 679.342 85.9467 678.502 85.48C677.675 85 677.022 84.3333 676.542 83.48C676.075 82.6133 675.842 81.6133 675.842 80.48C675.842 79.3467 676.068 78.3533 676.522 77.5C676.988 76.6333 677.635 75.9667 678.462 75.5C679.302 75.0333 680.262 74.8 681.342 74.8C682.382 74.8 683.308 75.0267 684.122 75.48C684.935 75.9333 685.568 76.5733 686.022 77.4C686.475 78.2133 686.702 79.1533 686.702 80.22ZM684.322 79.5C684.308 78.66 684.008 77.9867 683.422 77.48C682.835 76.9733 682.108 76.72 681.242 76.72C680.455 76.72 679.782 76.9733 679.222 77.48C678.662 77.9733 678.328 78.6467 678.222 79.5H684.322ZM691.225 71.2V86H688.945V71.2H691.225ZM696.499 76.6C696.885 76.0933 697.412 75.6667 698.079 75.32C698.745 74.9733 699.499 74.8 700.339 74.8C701.299 74.8 702.172 75.04 702.959 75.52C703.759 75.9867 704.385 76.6467 704.839 77.5C705.292 78.3533 705.519 79.3333 705.519 80.44C705.519 81.5467 705.292 82.54 704.839 83.42C704.385 84.2867 703.759 84.9667 702.959 85.46C702.172 85.94 701.299 86.18 700.339 86.18C699.499 86.18 698.752 86.0133 698.099 85.68C697.445 85.3333 696.912 84.9067 696.499 84.4V91.24H694.219V74.98H696.499V76.6ZM703.199 80.44C703.199 79.68 703.039 79.0267 702.719 78.48C702.412 77.92 701.999 77.5 701.479 77.22C700.972 76.9267 700.425 76.78 699.839 76.78C699.265 76.78 698.719 76.9267 698.199 77.22C697.692 77.5133 697.279 77.94 696.959 78.5C696.652 79.06 696.499 79.72 696.499 80.48C696.499 81.24 696.652 81.9067 696.959 82.48C697.279 83.04 697.692 83.4667 698.199 83.76C698.719 84.0533 699.265 84.2 699.839 84.2C700.425 84.2 700.972 84.0533 701.479 83.76C701.999 83.4533 702.412 83.0133 702.719 82.44C703.039 81.8667 703.199 81.2 703.199 80.44Z" fill="#8896AB"/>
<path d="M766.22 76.24C766.22 76.9467 766.053 77.6133 765.72 78.24C765.387 78.8667 764.853 79.38 764.12 79.78C763.387 80.1667 762.447 80.36 761.3 80.36H758.78V86H756.5V72.1H761.3C762.367 72.1 763.267 72.2867 764 72.66C764.747 73.02 765.3 73.5133 765.66 74.14C766.033 74.7667 766.22 75.4667 766.22 76.24ZM761.3 78.5C762.167 78.5 762.813 78.3067 763.24 77.92C763.667 77.52 763.88 76.96 763.88 76.24C763.88 74.72 763.02 73.96 761.3 73.96H758.78V78.5H761.3ZM770.675 76.58C771.008 76.02 771.448 75.5867 771.995 75.28C772.555 74.96 773.215 74.8 773.975 74.8V77.16H773.395C772.501 77.16 771.821 77.3867 771.355 77.84C770.901 78.2933 770.675 79.08 770.675 80.2V86H768.395V74.98H770.675V76.58ZM777.23 73.52C776.817 73.52 776.47 73.38 776.19 73.1C775.91 72.82 775.77 72.4733 775.77 72.06C775.77 71.6467 775.91 71.3 776.19 71.02C776.47 70.74 776.817 70.6 777.23 70.6C777.63 70.6 777.97 70.74 778.25 71.02C778.53 71.3 778.67 71.6467 778.67 72.06C778.67 72.4733 778.53 72.82 778.25 73.1C777.97 73.38 777.63 73.52 777.23 73.52ZM778.35 74.98V86H776.07V74.98H778.35ZM785.604 83.96L788.724 74.98H791.144L786.944 86H784.224L780.044 74.98H782.484L785.604 83.96ZM792.107 80.44C792.107 79.3333 792.334 78.3533 792.787 77.5C793.254 76.6467 793.881 75.9867 794.667 75.52C795.467 75.04 796.347 74.8 797.307 74.8C798.174 74.8 798.927 74.9733 799.567 75.32C800.221 75.6533 800.741 76.0733 801.127 76.58V74.98H803.427V86H801.127V84.36C800.741 84.88 800.214 85.3133 799.547 85.66C798.881 86.0067 798.121 86.18 797.267 86.18C796.321 86.18 795.454 85.94 794.667 85.46C793.881 84.9667 793.254 84.2867 792.787 83.42C792.334 82.54 792.107 81.5467 792.107 80.44ZM801.127 80.48C801.127 79.72 800.967 79.06 800.647 78.5C800.341 77.94 799.934 77.5133 799.427 77.22C798.921 76.9267 798.374 76.78 797.787 76.78C797.201 76.78 796.654 76.9267 796.147 77.22C795.641 77.5 795.227 77.92 794.907 78.48C794.601 79.0267 794.447 79.68 794.447 80.44C794.447 81.2 794.601 81.8667 794.907 82.44C795.227 83.0133 795.641 83.4533 796.147 83.76C796.667 84.0533 797.214 84.2 797.787 84.2C798.374 84.2 798.921 84.0533 799.427 83.76C799.934 83.4667 800.341 83.04 800.647 82.48C800.967 81.9067 801.127 81.24 801.127 80.48ZM805.662 80.48C805.662 79.3467 805.889 78.3533 806.342 77.5C806.809 76.6333 807.449 75.9667 808.262 75.5C809.075 75.0333 810.009 74.8 811.062 74.8C812.395 74.8 813.495 75.12 814.362 75.76C815.242 76.3867 815.835 77.2867 816.142 78.46H813.682C813.482 77.9133 813.162 77.4867 812.722 77.18C812.282 76.8733 811.729 76.72 811.062 76.72C810.129 76.72 809.382 77.0533 808.822 77.72C808.275 78.3733 808.002 79.2933 808.002 80.48C808.002 81.6667 808.275 82.5933 808.822 83.26C809.382 83.9267 810.129 84.26 811.062 84.26C812.382 84.26 813.255 83.68 813.682 82.52H816.142C815.822 83.64 815.222 84.5333 814.342 85.2C813.462 85.8533 812.369 86.18 811.062 86.18C810.009 86.18 809.075 85.9467 808.262 85.48C807.449 85 806.809 84.3333 806.342 83.48C805.889 82.6133 805.662 81.6133 805.662 80.48ZM828.334 74.98L821.574 91.18H819.214L821.454 85.82L817.114 74.98H819.654L822.754 83.38L825.974 74.98H828.334Z" fill="#8896AB"/>
<path d="M421.316 6.71171V10.2986H413.828V14.1735H419.431V17.6557H413.828V25.0913H409.351V6.71171H421.316Z" fill="white"/>
<path d="M428.146 5.7168V25.0913H423.669V5.7168H428.146Z" fill="white"/>
<path d="M445.162 17.551C445.162 17.9699 445.136 18.4062 445.083 18.8601H434.951C435.021 19.7677 435.309 20.4659 435.815 20.9546C436.339 21.4259 436.976 21.6615 437.726 21.6615C438.843 21.6615 439.62 21.1902 440.057 20.2477H444.822C444.577 21.2077 444.132 22.0717 443.486 22.8397C442.858 23.6077 442.064 24.2099 441.104 24.6462C440.144 25.0826 439.07 25.3008 437.883 25.3008C436.452 25.3008 435.178 24.9953 434.061 24.3844C432.944 23.7735 432.071 22.9008 431.443 21.7663C430.814 20.6317 430.5 19.3052 430.5 17.7866C430.5 16.2681 430.806 14.9415 431.417 13.807C432.045 12.6724 432.918 11.7997 434.035 11.1888C435.152 10.5779 436.435 10.2724 437.883 10.2724C439.297 10.2724 440.554 10.5692 441.654 11.1626C442.753 11.7561 443.609 12.6026 444.219 13.7023C444.848 14.8019 445.162 16.0848 445.162 17.551ZM440.58 16.3728C440.58 15.6048 440.318 14.9939 439.795 14.5401C439.271 14.0862 438.617 13.8593 437.831 13.8593C437.081 13.8593 436.443 14.0775 435.92 14.5139C435.414 14.9502 435.099 15.5699 434.977 16.3728H440.58Z" fill="white"/>
<path d="M456.164 25.0913L453.362 21.0332L451.006 25.0913H446.162L450.98 17.6295L446.032 10.4819H451.058L453.86 14.5139L456.216 10.4819H461.06L456.164 17.839L461.191 25.0913H456.164Z" fill="white"/>
<path d="M381.626 9.94644C386.006 11.4921 390.729 11.4063 395.065 9.73177C395.108 7.97138 394.636 6.21099 393.82 4.62235L393.391 3.76362C393.262 3.80656 393.09 3.89244 393.004 3.97831C389.054 5.86751 384.589 6.12512 380.424 4.62235C377.504 3.59188 374.327 3.8495 371.579 5.22346L370.72 5.65282C370.763 5.78163 370.849 5.95337 370.935 6.03924C371.45 7.15559 371.88 8.35781 372.18 9.60296C375.186 8.74423 378.535 8.8301 381.626 9.94644Z" fill="#22C55E"/>
<path d="M370.935 22.87L371.88 22.3548C373.793 21.3978 375.905 20.9345 378 20.9956C379.289 21.0332 380.571 21.2692 381.798 21.7107C382.197 21.8525 382.598 21.9827 383 22.1013V26.6779C381.338 26.3689 379.655 26.3247 378 26.5377C376.283 26.7587 374.597 27.2564 372.996 28.0224C372.91 28.1082 372.738 28.1941 372.609 28.237L372.18 27.3783C371.45 25.9614 371.021 24.4157 370.935 22.87Z" fill="#22C55E"/>
<path d="M371.45 18.9201C375.1 17.4174 379.179 17.2885 382.914 18.6196C386.349 19.8218 389.999 20.0365 393.434 19.2636C393.391 17.3315 393.648 15.4423 394.335 13.5531C389.827 14.8841 384.975 14.7553 380.467 13.1667C377.891 12.2221 375.057 12.2221 372.481 13.0808C372.524 14.927 372.18 16.8162 371.536 18.6625C371.536 18.6625 371.493 18.7913 371.45 18.9201Z" fill="#22C55E"/>
</svg>
